<svg width="1920" height="960" viewBox="0 0 1920 960" fill="none" xmlns="http://www.w3.org/2000/svg">
<g clip-path="url(#clip0_205_46)">
<rect width="1920" height="960" fill="white"/>
<rect width="1920" height="960" fill="#4F76F9"/>
<path d="M616.798 438.75V468H587.938V375.96H628.238C639.505 375.96 648.128 378.82 654.108 384.54C660.175 390.26 663.208 397.93 663.208 407.55C663.208 413.357 661.865 418.643 659.178 423.41C656.492 428.09 652.505 431.817 647.218 434.59C642.018 437.363 635.692 438.75 628.238 438.75H616.798ZM624.988 416C630.968 416 633.958 413.183 633.958 407.55C633.958 401.917 630.968 399.1 624.988 399.1H616.798V416H624.988ZM704.602 393.77C711.969 393.77 718.599 395.287 724.492 398.32C730.385 401.353 734.979 405.73 738.272 411.45C741.652 417.083 743.342 423.713 743.342 431.34C743.342 438.967 741.652 445.64 738.272 451.36C734.979 456.993 730.385 461.327 724.492 464.36C718.599 467.393 711.969 468.91 704.602 468.91C697.235 468.91 690.605 467.393 684.712 464.36C678.819 461.327 674.182 456.993 670.802 451.36C667.509 445.64 665.862 438.967 665.862 431.34C665.862 423.713 667.509 417.083 670.802 411.45C674.182 405.73 678.819 401.353 684.712 398.32C690.605 395.287 697.235 393.77 704.602 393.77ZM704.602 418.73C701.915 418.73 699.662 419.813 697.842 421.98C696.022 424.06 695.112 427.18 695.112 431.34C695.112 435.5 695.979 438.663 697.712 440.83C699.532 442.91 701.829 443.95 704.602 443.95C707.289 443.95 709.542 442.91 711.362 440.83C713.182 438.663 714.092 435.5 714.092 431.34C714.092 427.18 713.182 424.06 711.362 421.98C709.542 419.813 707.289 418.73 704.602 418.73ZM861.089 394.68L843.669 468H811.169L802.329 426.66L792.969 468H760.469L743.179 394.68H771.779L777.889 439.27L787.379 394.68H818.189L828.199 439.79L834.439 394.68H861.089ZM935.62 430.69C935.62 432.51 935.404 434.417 934.97 436.41H888.82C889.08 440.05 889.904 442.563 891.29 443.95C892.677 445.25 894.497 445.9 896.75 445.9C899.87 445.9 902.124 444.47 903.51 441.61H934.06C933.02 446.81 930.81 451.49 927.43 455.65C924.137 459.723 919.934 462.973 914.82 465.4C909.794 467.74 904.247 468.91 898.18 468.91C890.9 468.91 884.4 467.393 878.68 464.36C873.047 461.327 868.627 456.993 865.42 451.36C862.3 445.64 860.74 438.967 860.74 431.34C860.74 423.713 862.3 417.083 865.42 411.45C868.627 405.73 873.047 401.353 878.68 398.32C884.4 395.287 890.9 393.77 898.18 393.77C905.46 393.77 911.917 395.287 917.55 398.32C923.27 401.267 927.69 405.513 930.81 411.06C934.017 416.607 935.62 423.15 935.62 430.69ZM906.37 424.58C906.37 421.807 905.59 419.77 904.03 418.47C902.47 417.083 900.52 416.39 898.18 416.39C892.894 416.39 889.86 419.12 889.08 424.58H906.37ZM971.008 408.2C973.954 403.953 977.551 400.573 981.798 398.06C986.044 395.46 990.464 394.16 995.058 394.16V424.97H986.868C981.408 424.97 977.378 425.923 974.778 427.83C972.264 429.737 971.008 433.117 971.008 437.97V468H942.148V394.68H971.008V408.2ZM1029.09 438.75V468H1000.23V375.96H1040.53C1051.8 375.96 1060.42 378.82 1066.4 384.54C1072.47 390.26 1075.5 397.93 1075.5 407.55C1075.5 413.357 1074.16 418.643 1071.47 423.41C1068.78 428.09 1064.8 431.817 1059.51 434.59C1054.31 437.363 1047.98 438.75 1040.53 438.75H1029.09ZM1037.28 416C1043.26 416 1046.25 413.183 1046.25 407.55C1046.25 401.917 1043.26 399.1 1037.28 399.1H1029.09V416H1037.28ZM1116.9 393.77C1124.26 393.77 1130.89 395.287 1136.79 398.32C1142.68 401.353 1147.27 405.73 1150.57 411.45C1153.95 417.083 1155.64 423.713 1155.64 431.34C1155.64 438.967 1153.95 445.64 1150.57 451.36C1147.27 456.993 1142.68 461.327 1136.79 464.36C1130.89 467.393 1124.26 468.91 1116.9 468.91C1109.53 468.91 1102.9 467.393 1097.01 464.36C1091.11 461.327 1086.48 456.993 1083.1 451.36C1079.8 445.64 1078.16 438.967 1078.16 431.34C1078.16 423.713 1079.8 417.083 1083.1 411.45C1086.48 405.73 1091.11 401.353 1097.01 398.32C1102.9 395.287 1109.53 393.77 1116.9 393.77ZM1116.9 418.73C1114.21 418.73 1111.96 419.813 1110.14 421.98C1108.32 424.06 1107.41 427.18 1107.41 431.34C1107.41 435.5 1108.27 438.663 1110.01 440.83C1111.83 442.91 1114.12 443.95 1116.9 443.95C1119.58 443.95 1121.84 442.91 1123.66 440.83C1125.48 438.663 1126.39 435.5 1126.39 431.34C1126.39 427.18 1125.48 424.06 1123.66 421.98C1121.84 419.813 1119.58 418.73 1116.9 418.73ZM1160.02 374.66C1160.02 370.5 1161.54 367.077 1164.57 364.39C1167.6 361.617 1171.63 360.23 1176.66 360.23C1181.6 360.23 1185.59 361.617 1188.62 364.39C1191.65 367.077 1193.17 370.5 1193.17 374.66C1193.17 378.733 1191.65 382.113 1188.62 384.8C1185.59 387.487 1181.6 388.83 1176.66 388.83C1171.63 388.83 1167.6 387.487 1164.57 384.8C1161.54 382.113 1160.02 378.733 1160.02 374.66ZM1190.96 394.68V468H1162.1V394.68H1190.96ZM1252.75 394.16C1261.15 394.16 1267.7 396.977 1272.38 402.61C1277.14 408.243 1279.53 415.87 1279.53 425.49V468H1250.8V429.13C1250.8 425.663 1249.84 422.933 1247.94 420.94C1246.12 418.86 1243.65 417.82 1240.53 417.82C1237.32 417.82 1234.81 418.86 1232.99 420.94C1231.17 422.933 1230.26 425.663 1230.26 429.13V468H1201.4V394.68H1230.26V405.86C1232.51 402.393 1235.5 399.577 1239.23 397.41C1243.04 395.243 1247.55 394.16 1252.75 394.16ZM1335.07 443.43V468H1324.15C1304.04 468 1293.99 457.99 1293.99 437.97V418.73H1284.89V394.68H1293.99V377H1322.85V394.68H1334.81V418.73H1322.85V438.49C1322.85 440.223 1323.24 441.48 1324.02 442.26C1324.89 443.04 1326.27 443.43 1328.18 443.43H1335.07ZM566.141 585.75V615H537.281V522.96H577.581C588.848 522.96 597.471 525.82 603.451 531.54C609.518 537.26 612.551 544.93 612.551 554.55C612.551 560.357 611.208 565.643 608.521 570.41C605.835 575.09 601.848 578.817 596.561 581.59C591.361 584.363 585.035 585.75 577.581 585.75H566.141ZM574.331 563C580.311 563 583.301 560.183 583.301 554.55C583.301 548.917 580.311 546.1 574.331 546.1H566.141V563H574.331ZM647.965 555.2C650.912 550.953 654.509 547.573 658.755 545.06C663.002 542.46 667.422 541.16 672.015 541.16V571.97H663.825C658.365 571.97 654.335 572.923 651.735 574.83C649.222 576.737 647.965 580.117 647.965 584.97V615H619.105V541.68H647.965V555.2ZM748.169 577.69C748.169 579.51 747.952 581.417 747.519 583.41H701.369C701.629 587.05 702.452 589.563 703.839 590.95C705.226 592.25 707.046 592.9 709.299 592.9C712.419 592.9 714.672 591.47 716.059 588.61H746.609C745.569 593.81 743.359 598.49 739.979 602.65C736.686 606.723 732.482 609.973 727.369 612.4C722.342 614.74 716.796 615.91 710.729 615.91C703.449 615.91 696.949 614.393 691.229 611.36C685.596 608.327 681.176 603.993 677.969 598.36C674.849 592.64 673.289 585.967 673.289 578.34C673.289 570.713 674.849 564.083 677.969 558.45C681.176 552.73 685.596 548.353 691.229 545.32C696.949 542.287 703.449 540.77 710.729 540.77C718.009 540.77 724.466 542.287 730.099 545.32C735.819 548.267 740.239 552.513 743.359 558.06C746.566 563.607 748.169 570.15 748.169 577.69ZM718.919 571.58C718.919 568.807 718.139 566.77 716.579 565.47C715.019 564.083 713.069 563.39 710.729 563.39C705.442 563.39 702.409 566.12 701.629 571.58H718.919ZM783.556 540.77C793.523 540.77 801.453 543.197 807.346 548.05C813.326 552.817 817.096 559.143 818.656 567.03H791.746C790.62 562.87 787.673 560.79 782.906 560.79C780.22 560.79 778.876 561.83 778.876 563.91C778.876 565.383 779.83 566.51 781.736 567.29C783.73 568.07 786.85 568.893 791.096 569.76C796.643 570.8 801.366 572.057 805.266 573.53C809.253 574.917 812.676 577.213 815.536 580.42C818.396 583.627 819.826 588.003 819.826 593.55C819.826 597.883 818.613 601.74 816.186 605.12C813.76 608.5 810.206 611.143 805.526 613.05C800.846 614.957 795.343 615.91 789.016 615.91C778.443 615.91 770.036 613.657 763.796 609.15C757.556 604.643 753.7 598.143 752.226 589.65H779.916C780.436 593.897 783.426 596.02 788.886 596.02C791.833 596.02 793.306 594.98 793.306 592.9C793.306 591.253 792.31 590.04 790.316 589.26C788.323 588.48 785.116 587.7 780.696 586.92C775.063 585.793 770.383 584.58 766.656 583.28C763.016 581.98 759.81 579.77 757.036 576.65C754.263 573.53 752.876 569.24 752.876 563.78C752.876 559.36 754.046 555.417 756.386 551.95C758.726 548.483 762.193 545.753 766.786 543.76C771.38 541.767 776.97 540.77 783.556 540.77ZM898.359 577.69C898.359 579.51 898.143 581.417 897.709 583.41H851.559C851.819 587.05 852.643 589.563 854.029 590.95C855.416 592.25 857.236 592.9 859.489 592.9C862.609 592.9 864.863 591.47 866.249 588.61H896.799C895.759 593.81 893.549 598.49 890.169 602.65C886.876 606.723 882.673 609.973 877.559 612.4C872.533 614.74 866.986 615.91 860.919 615.91C853.639 615.91 847.139 614.393 841.419 611.36C835.786 608.327 831.366 603.993 828.159 598.36C825.039 592.64 823.479 585.967 823.479 578.34C823.479 570.713 825.039 564.083 828.159 558.45C831.366 552.73 835.786 548.353 841.419 545.32C847.139 542.287 853.639 540.77 860.919 540.77C868.199 540.77 874.656 542.287 880.289 545.32C886.009 548.267 890.429 552.513 893.549 558.06C896.756 563.607 898.359 570.15 898.359 577.69ZM869.109 571.58C869.109 568.807 868.329 566.77 866.769 565.47C865.209 564.083 863.259 563.39 860.919 563.39C855.633 563.39 852.599 566.12 851.819 571.58H869.109ZM956.237 541.16C964.644 541.16 971.187 543.977 975.867 549.61C980.634 555.243 983.017 562.87 983.017 572.49V615H954.287V576.13C954.287 572.663 953.334 569.933 951.427 567.94C949.607 565.86 947.137 564.82 944.017 564.82C940.81 564.82 938.297 565.86 936.477 567.94C934.657 569.933 933.747 572.663 933.747 576.13V615H904.887V541.68H933.747V552.86C936 549.393 938.99 546.577 942.717 544.41C946.53 542.243 951.037 541.16 956.237 541.16ZM1038.56 590.43V615H1027.64C1007.53 615 997.481 604.99 997.481 584.97V565.73H988.381V541.68H997.481V524H1026.34V541.68H1038.3V565.73H1026.34V585.49C1026.34 587.223 1026.73 588.48 1027.51 589.26C1028.38 590.04 1029.76 590.43 1031.67 590.43H1038.56ZM1073.34 540.77C1078.11 540.77 1082.23 541.767 1085.69 543.76C1089.16 545.667 1091.8 548.31 1093.62 551.69V541.68H1122.35V615H1093.62V604.99C1091.8 608.37 1089.16 611.057 1085.69 613.05C1082.23 614.957 1078.11 615.91 1073.34 615.91C1067.62 615.91 1062.47 614.437 1057.87 611.49C1053.28 608.457 1049.64 604.123 1046.95 598.49C1044.35 592.77 1043.05 586.053 1043.05 578.34C1043.05 570.627 1044.35 563.953 1046.95 558.32C1049.64 552.6 1053.28 548.267 1057.87 545.32C1062.47 542.287 1067.62 540.77 1073.34 540.77ZM1082.96 565.99C1079.84 565.99 1077.29 567.073 1075.29 569.24C1073.3 571.407 1072.3 574.44 1072.3 578.34C1072.3 582.24 1073.3 585.273 1075.29 587.44C1077.29 589.607 1079.84 590.69 1082.96 590.69C1086.08 590.69 1088.64 589.607 1090.63 587.44C1092.63 585.273 1093.62 582.24 1093.62 578.34C1093.62 574.44 1092.63 571.407 1090.63 569.24C1088.64 567.073 1086.08 565.99 1082.96 565.99ZM1178.34 590.43V615H1167.42C1147.32 615 1137.26 604.99 1137.26 584.97V565.73H1128.16V541.68H1137.26V524H1166.12V541.68H1178.08V565.73H1166.12V585.49C1166.12 587.223 1166.51 588.48 1167.29 589.26C1168.16 590.04 1169.55 590.43 1171.45 590.43H1178.34ZM1184.65 521.66C1184.65 517.5 1186.17 514.077 1189.2 511.39C1192.24 508.617 1196.27 507.23 1201.29 507.23C1206.23 507.23 1210.22 508.617 1213.25 511.39C1216.29 514.077 1217.8 517.5 1217.8 521.66C1217.8 525.733 1216.29 529.113 1213.25 531.8C1210.22 534.487 1206.23 535.83 1201.29 535.83C1196.27 535.83 1192.24 534.487 1189.2 531.8C1186.17 529.113 1184.65 525.733 1184.65 521.66ZM1215.59 541.68V615H1186.73V541.68H1215.59ZM1260.87 540.77C1268.23 540.77 1274.86 542.287 1280.76 545.32C1286.65 548.353 1291.24 552.73 1294.54 558.45C1297.92 564.083 1299.61 570.713 1299.61 578.34C1299.61 585.967 1297.92 592.64 1294.54 598.36C1291.24 603.993 1286.65 608.327 1280.76 611.36C1274.86 614.393 1268.23 615.91 1260.87 615.91C1253.5 615.91 1246.87 614.393 1240.98 611.36C1235.08 608.327 1230.45 603.993 1227.07 598.36C1223.77 592.64 1222.13 585.967 1222.13 578.34C1222.13 570.713 1223.77 564.083 1227.07 558.45C1230.45 552.73 1235.08 548.353 1240.98 545.32C1246.87 542.287 1253.5 540.77 1260.87 540.77ZM1260.87 565.73C1258.18 565.73 1255.93 566.813 1254.11 568.98C1252.29 571.06 1251.38 574.18 1251.38 578.34C1251.38 582.5 1252.24 585.663 1253.98 587.83C1255.8 589.91 1258.09 590.95 1260.87 590.95C1263.55 590.95 1265.81 589.91 1267.63 587.83C1269.45 585.663 1270.36 582.5 1270.36 578.34C1270.36 574.18 1269.45 571.06 1267.63 568.98C1265.81 566.813 1263.55 565.73 1260.87 565.73ZM1357.42 541.16C1365.83 541.16 1372.37 543.977 1377.05 549.61C1381.82 555.243 1384.2 562.87 1384.2 572.49V615H1355.47V576.13C1355.47 572.663 1354.52 569.933 1352.61 567.94C1350.79 565.86 1348.32 564.82 1345.2 564.82C1342 564.82 1339.48 565.86 1337.66 567.94C1335.84 569.933 1334.93 572.663 1334.93 576.13V615H1306.07V541.68H1334.93V552.86C1337.19 549.393 1340.18 546.577 1343.9 544.41C1347.72 542.243 1352.22 541.16 1357.42 541.16Z" fill="black"/>
</g>
<defs>
<clipPath id="clip0_205_46">
<rect width="1920" height="960" fill="white"/>
</clipPath>
</defs>
</svg>
