<svg width="24" height="24" viewBox="0 0 24 24" fill="none" xmlns="http://www.w3.org/2000/svg">
<path d="M1.5925 7.06957H22.4075V21.308H23.5V2.69238H22.4075V5.97707H1.5925V2.69238H0.5V21.308H1.5925V7.06957Z" fill="white"/>
<path d="M1.59253 21.3076H22.4075V22.4073H1.59253V21.3076Z" fill="white"/>
<path d="M3.78467 9.26172V19.123H20.2153V9.26172H3.78467ZM10.354 14.7386H9.26154V15.8311H8.16904V16.9308H7.06936V15.8311H8.16904V14.7386H9.26154V13.6461H8.16904V12.5464H7.06936V11.4539H8.16904V12.5464H9.26154V13.6461H10.354V14.7386ZM16.9306 14.7386H12.5462V13.6461H16.9306V14.7386Z" fill="white"/>
<path d="M7.0694 3.78516H8.16908V4.88484H7.0694V3.78516Z" fill="white"/>
<path d="M4.8844 3.78516H5.9769V4.88484H4.8844V3.78516Z" fill="white"/>
<path d="M2.6922 3.78516H3.7847V4.88484H2.6922V3.78516Z" fill="white"/>
<path d="M1.59253 1.59277H22.4075V2.69246H1.59253V1.59277Z" fill="white"/>
</svg>
