<svg width="22" height="22" viewBox="0 0 22 22" fill="none" xmlns="http://www.w3.org/2000/svg">
<path d="M21.4075 3.88465V0.592773H18.1228V1.69246H3.8844V0.592773H0.592529V3.88465H1.69222V18.1231H0.592529V21.4078H3.8844V20.3081H18.1228V21.4078H21.4075V18.1231H20.3078V3.88465H21.4075ZM19.2153 18.1231H18.1228V19.2156H3.8844V18.1231H2.78472V3.88465H3.8844V2.78496H18.1228V3.88465H19.2153V18.1231Z" fill="white"/>
<path d="M14.831 6.06934H15.9307V8.26152H14.831V6.06934Z" fill="white"/>
<path d="M7.16907 4.97754V6.07004H10.4538V15.9313H8.26157V17.0238H13.7384V15.9313H11.5463V6.07004H14.8309V4.97754H7.16907Z" fill="white"/>
<path d="M6.0694 6.06934H7.16908V8.26152H6.0694V6.06934Z" fill="white"/>
</svg>
