<svg width="24" height="24" viewBox="0 0 24 24" fill="none" xmlns="http://www.w3.org/2000/svg">
<path d="M20.7688 22.4078V13.6462H22.9538V2.69246H20.7688V1.59277H19.6691V22.4078H20.7688ZM20.7688 3.78496H21.8613V5.97715H20.7688V3.78496ZM20.7688 7.06965H21.8613V9.26184H20.7688V7.06965ZM20.7688 10.3615H21.8613V12.5465H20.7688V10.3615Z" fill="white"/>
<path d="M3.24203 22.4072H19.6655V23.4997H3.24203V22.4072Z" fill="white"/>
<path d="M16.3808 18.0234H17.4805V19.1231H16.3808V18.0234Z" fill="white"/>
<path d="M14.1886 20.2148H17.4805V21.3073H14.1886V20.2148Z" fill="white"/>
<path d="M16.3844 12.5466V11.4541H17.484V5.97727H16.3844V4.88477H7.61561V5.97727H6.5267V11.4541H7.61561V12.5466H16.3844ZM8.71889 7.06977H15.2883V8.16945H8.71889V7.06977ZM8.71889 9.26195H15.2883V10.3616H8.71889V9.26195Z" fill="white"/>
<path d="M14.1886 18.0234H15.2883V19.1231H14.1886V18.0234Z" fill="white"/>
<path d="M3.24203 0.5H19.6655V1.5925H3.24203V0.5Z" fill="white"/>
<path d="M4.33452 20.2156V19.1231H3.24202V15.8312H4.33452V14.7387H3.24202V12.5465H4.33452V11.454H3.24202V9.26184H4.33452V8.16934H3.24202V4.88465H4.33452V3.78496H3.24202V1.59277H2.14234V3.78496H1.04984V4.88465H2.14234V8.16934H1.04984V9.26184H2.14234V11.454H1.04984V12.5465H2.14234V14.7387H1.04984V15.8312H2.14234V19.1231H1.04984V20.2156H2.14234V22.4078H3.24202V20.2156H4.33452Z" fill="white"/>
</svg>
