<svg width="24" height="16" viewBox="0 0 24 16" fill="none" xmlns="http://www.w3.org/2000/svg">
<path d="M22.4075 7.99707H23.5V11.2889H22.4075V7.99707Z" fill="white"/>
<path d="M22.4075 4.71191H23.5V6.9041H22.4075V4.71191Z" fill="white"/>
<path d="M21.3078 11.2891H22.4075V12.3816H21.3078V11.2891Z" fill="white"/>
<path d="M21.3078 3.62012H22.4075V4.71262H21.3078V3.62012Z" fill="white"/>
<path d="M20.2153 12.3809H21.3078V13.4734H20.2153V12.3809Z" fill="white"/>
<path d="M20.2153 2.52734H21.3078V3.61984H20.2153V2.52734Z" fill="white"/>
<path d="M19.1228 0.334961H21.3078V1.42746H19.1228V0.334961Z" fill="white"/>
<path d="M19.1228 14.5732H21.3078V15.6657H19.1228V14.5732Z" fill="white"/>
<path d="M18.0231 1.42773H19.1228V14.5737H18.0231V1.42773Z" fill="white"/>
<path d="M15.8381 0.334961H18.0231V1.42746H15.8381V0.334961Z" fill="white"/>
<path d="M15.8381 14.5732H18.0231V15.6657H15.8381V14.5732Z" fill="white"/>
<path d="M13.6459 12.3809H16.9306V13.4734H13.6459V12.3809Z" fill="white"/>
<path d="M15.8381 10.1895H16.9306V11.2891H15.8381V10.1895Z" fill="white"/>
<path d="M15.8381 6.9043H16.9306V7.9968H15.8381V6.9043Z" fill="white"/>
<path d="M14.7385 7.99707H15.8382V10.1893H14.7385V7.99707Z" fill="white"/>
<path d="M13.6459 2.52734H16.9306V3.61984H13.6459V2.52734Z" fill="white"/>
<path d="M12.5463 7.99707H13.646V10.1893H12.5463V7.99707Z" fill="white"/>
<path d="M9.26154 12.3809H12.5462V13.4734H9.26154V12.3809Z" fill="white"/>
<path d="M10.3612 7.9966H12.5462V6.9041H10.3612V4.71191H9.26154V11.2885H12.5462V10.1888H10.3612V7.9966Z" fill="white"/>
<path d="M9.26154 2.52734H12.5462V3.61984H9.26154V2.52734Z" fill="white"/>
<path d="M8.16907 5.81152H7.07657V7.99652H4.88439V5.81152H3.7847V11.2884H4.88439V9.09621H7.07657V11.2884H8.16907V5.81152Z" fill="white"/>
<path d="M4.88437 12.3809H8.16906V13.4734H4.88437V12.3809Z" fill="white"/>
<path d="M4.88437 4.71191H7.07656V5.8116H4.88437V4.71191Z" fill="white"/>
<path d="M4.88437 2.52734H8.16906V3.61984H4.88437V2.52734Z" fill="white"/>
<path d="M2.6922 12.3809H3.7847V13.4734H2.6922V12.3809Z" fill="white"/>
<path d="M2.6922 2.52734H3.7847V3.61984H2.6922V2.52734Z" fill="white"/>
<path d="M1.5997 11.2891H2.6922V12.3816H1.5997V11.2891Z" fill="white"/>
<path d="M1.5997 3.62012H2.6922V4.71262H1.5997V3.62012Z" fill="white"/>
<path d="M0.5 7.99707H1.59969V11.2889H0.5V7.99707Z" fill="white"/>
<path d="M0.5 4.71191H1.59969V6.9041H0.5V4.71191Z" fill="white"/>
</svg>
